<?xml version="1.0" standalone="no"?><!DOCTYPE svg PUBLIC "-//W3C//DTD SVG 1.1//EN" "http://www.w3.org/Graphics/SVG/1.1/DTD/svg11.dtd"><svg t="1489045784732" class="icon" style="" viewBox="0 0 1024 1024" version="1.1" xmlns="http://www.w3.org/2000/svg" p-id="1095" xmlns:xlink="http://www.w3.org/1999/xlink" width="200" height="200"><defs><style type="text/css"></style></defs><path d="M909.164067 235.338936c31.127951 8.236592 52.445466 37.374212 52.445466 71.633481l0 149.614529L961.609533 717.340715c0 34.146705-21.317515 63.288418-52.445466 71.609944l0.474814 0.669242c-86.940095 16.060791-220.087581 25.989931-367.657544 25.989931l-45.780673 0c-134.12372 0-255.991302-8.162914-342.479095-21.640879l0.480954 0c-10.743692-1.119497-20.396539-2.314719-29.166273-3.555989l0-0.239454c-34.487465-6.541997-62.646805-36.893258-62.646805-72.833819L62.389444 456.586946 62.389444 306.972417c0-35.933397 28.15934-66.285682 62.646805-72.854285l0 0c8.769734-1.476631 18.422581-2.664689 29.166273-3.872191l-0.480954 0.210801c86.487793-13.613042 208.354352-22.067598 342.479095-22.067598l45.780673 0c147.569964 0 280.71745 10.165524 367.657544 26.200732L909.164067 235.338936 909.164067 235.338936zM175.572226 321.318146l0 381.834428 72.386634 0L247.95886 321.318146 175.572226 321.318146 175.572226 321.318146zM634.680599 321.318146c-35.383882 0-64.696488 31.351032-64.696488 69.993121l0 101.772918 0 140.091642c0 38.384216 29.312606 69.975724 64.696488 69.975724l149.2093 0c35.898605 0 64.535829-31.591509 64.535829-69.975724L848.425727 493.085208l0-101.772918c0-38.643112-28.637224-69.993121-64.535829-69.993121L634.680599 321.31917 634.680599 321.318146zM677.412842 463.388862c-15.125489 0-27.607778 13.620206-27.607778 30.16809l0 43.704384 0 59.968813c0 16.630772 12.481266 30.079062 27.607778 30.079062l64.126506 0c15.112186 0 27.635407-13.44829 27.635407-30.079062l0-59.968813 0-43.704384c0-16.548908-12.523221-30.16809-27.635407-30.16809L677.412842 463.388862 677.412842 463.388862zM677.412842 396.897495c-15.125489 0-27.607778 13.334703-27.607778 30.086226l0 43.782156 0 22.037922c0.372483-16.269545 12.481266-29.414937 27.607778-29.414937l64.126506 0c15.112186 0 27.258831 13.145391 27.635407 29.414937l0-22.037922 0-43.782156c0-16.751522-12.523221-30.086226-27.635407-30.086226L677.412842 396.897495 677.412842 396.897495zM334.470189 321.318146c-35.46063 0-64.660672 31.351032-64.660672 69.993121l0 101.772918 0 140.091642c0 38.384216 29.199019 69.975724 64.660672 69.975724l149.056827 0c35.951817 0 64.692395-31.591509 64.692395-69.975724L548.219411 493.085208l0-101.772918c0-38.643112-28.740578-69.993121-64.692395-69.993121L334.470189 321.31917 334.470189 321.318146zM377.148198 463.388862c-15.072277 0-27.634384 13.620206-27.634384 30.16809l0 43.704384 0 59.968813c0 16.630772 12.562107 30.079062 27.634384 30.079062l63.72844 0c15.501042 0 28.091802-13.44829 28.091802-30.079062l0-59.968813 0-43.704384c0-16.548908-12.590759-30.16809-28.091802-30.16809L377.148198 463.388862 377.148198 463.388862zM377.148198 396.897495c-15.072277 0-27.634384 13.334703-27.634384 30.086226l0 43.782156 0 22.037922c0-16.269545 12.562107-29.414937 27.634384-29.414937l63.72844 0c15.501042 0 27.607778 13.145391 28.091802 29.414937l0-22.037922 0-43.782156c0-16.751522-12.590759-30.086226-28.091802-30.086226L377.148198 396.897495z" p-id="1096" fill="#ffffff"></path></svg>